# xmcd CD database file
# Copyright (C) 1996 Ti Kan
#
# Track frame offsets:
#	150
#	16502
#	27510
#	44192
#
# Disc length: 744 seconds
#
# Revision: 1
# Processed by: cddbd v1.4b41PL1 Copyright (c) Steve Scherf et al.
# Submitted via: EasyCD 2.21 - (C) 1996 Greg Leichner
#
DISCID=2b02e604
DTITLE=Keziah Jones - Rhythm Is Love
DYEAR=1900
DGENRE=
TTITLE0=Rhythm Is Love
TTITLE1=Dilute Yo' Hype
TTITLE2=Laughter And It's Reasons
TTITLE3=Hidetheology
EXTD=
EXTT0=
EXTT1=
EXTT2=
EXTT3=
PLAYORDER=
